<?xml version="1.0" encoding="UTF-8" standalone="no"?>
<svg
   width="429.801"
   height="77.801"
   viewBox="0 0 429.801 77.801"
   version="1.1"
   id="svg1"
   sodipodi:docname="Text Tools 2.svg"
   xml:space="preserve"
   inkscape:version="1.3 (0e150ed6c4, 2023-07-21)"
   xmlns:inkscape="http://www.inkscape.org/namespaces/inkscape"
   xmlns:sodipodi="http://sodipodi.sourceforge.net/DTD/sodipodi-0.dtd"
   xmlns="http://www.w3.org/2000/svg"
   xmlns:svg="http://www.w3.org/2000/svg"><defs
     id="defs1" /><sodipodi:namedview
     id="namedview1"
     pagecolor="#ffffff"
     bordercolor="#000000"
     borderopacity="0.25"
     inkscape:showpageshadow="2"
     inkscape:pageopacity="0.0"
     inkscape:pagecheckerboard="0"
     inkscape:deskcolor="#d1d1d1"
     inkscape:zoom="2.8284271"
     inkscape:cx="208.24295"
     inkscape:cy="52.502679"
     inkscape:window-width="1920"
     inkscape:window-height="1051"
     inkscape:window-x="-9"
     inkscape:window-y="-9"
     inkscape:window-maximized="1"
     inkscape:current-layer="svgGroup" /><g
     id="svgGroup"
     stroke-linecap="round"
     fill-rule="evenodd"
     font-size="9pt"
     stroke="#b0bac5"
     stroke-width="0.25mm"
     fill="#b0bac5"
     style="stroke:#b0bac5;stroke-width:0.25mm;fill:#b0bac5"><path
       d="M 410.6 23.9 Q 412.7 23.9 415.9 24.25 A 30.046 30.046 0 0 1 421.955 25.535 A 27.942 27.942 0 0 1 422 25.55 A 16.816 16.816 0 0 1 425.162 26.943 A 14.057 14.057 0 0 1 427 28.2 A 5.827 5.827 0 0 1 428.433 29.856 A 5.278 5.278 0 0 1 429.1 32.5 Q 429.1 34 428.25 35.1 A 2.694 2.694 0 0 1 426.794 36.052 Q 426.261 36.2 425.6 36.2 A 10.094 10.094 0 0 1 424.396 36.124 Q 423.783 36.05 423.107 35.905 A 17.829 17.829 0 0 1 422.65 35.8 Q 421 35.4 419.05 34.85 A 40.757 40.757 0 0 0 416.495 34.221 A 48.812 48.812 0 0 0 414.85 33.9 A 26.322 26.322 0 0 0 411.182 33.519 A 30.252 30.252 0 0 0 410.1 33.5 A 22.4 22.4 0 0 0 407.396 33.654 Q 405.986 33.826 404.805 34.19 A 10.644 10.644 0 0 0 403.25 34.8 A 5.371 5.371 0 0 0 401.824 35.787 Q 400.6 36.997 400.6 38.9 A 4.46 4.46 0 0 0 400.809 40.29 A 3.778 3.778 0 0 0 401.55 41.6 Q 402.44 42.63 403.943 43.441 A 12.368 12.368 0 0 0 404.15 43.55 A 16.422 16.422 0 0 0 405.935 44.332 Q 406.855 44.675 407.909 44.962 A 27.087 27.087 0 0 0 408.05 45 Q 410.3 45.6 412.8 46.2 Q 415.9 47 418.95 48 A 20.01 20.01 0 0 1 423.239 49.971 A 18.066 18.066 0 0 1 424.4 50.75 Q 426.8 52.5 428.3 55.15 Q 429.8 57.8 429.8 61.7 A 15.719 15.719 0 0 1 428.822 67.353 A 13.963 13.963 0 0 1 424.2 73.45 A 18.064 18.064 0 0 1 418.775 76.267 Q 416.222 77.117 413.094 77.496 A 44.96 44.96 0 0 1 407.7 77.8 A 40.358 40.358 0 0 1 405.773 77.751 Q 404.063 77.669 402 77.45 Q 398.7 77.1 395.8 76.15 A 15.719 15.719 0 0 1 392.731 74.784 A 13.081 13.081 0 0 1 390.85 73.45 Q 388.8 71.7 388.8 68.8 A 6.75 6.75 0 0 1 388.893 67.643 Q 389.097 66.472 389.75 65.75 A 3.156 3.156 0 0 1 390.886 64.931 A 3.142 3.142 0 0 1 392.1 64.7 Q 393.153 64.7 394.298 65.342 A 6.826 6.826 0 0 1 394.4 65.4 A 28.165 28.165 0 0 0 395.37 65.939 Q 395.912 66.227 396.531 66.531 A 52.487 52.487 0 0 0 397.3 66.9 A 22.228 22.228 0 0 0 398.922 67.581 Q 399.768 67.9 400.739 68.201 A 40.525 40.525 0 0 0 401.4 68.4 Q 403.266 68.944 405.796 69.066 A 31.473 31.473 0 0 0 407.3 69.1 A 29.635 29.635 0 0 0 408.191 69.086 Q 409.222 69.054 410.607 68.957 A 94.576 94.576 0 0 0 410.7 68.95 Q 412.8 68.8 414.85 68.1 A 11.387 11.387 0 0 0 417.02 67.107 A 9.483 9.483 0 0 0 418.35 66.15 A 4.066 4.066 0 0 0 419.692 63.78 A 6.1 6.1 0 0 0 419.8 62.6 Q 419.8 60.8 418.8 59.55 A 7.557 7.557 0 0 0 417.377 58.197 A 10.095 10.095 0 0 0 416.1 57.4 Q 414.4 56.5 412.15 55.85 Q 409.9 55.2 407.4 54.5 Q 404.5 53.7 401.55 52.7 A 23.347 23.347 0 0 1 397.276 50.772 A 21.017 21.017 0 0 1 396.2 50.1 Q 393.8 48.5 392.3 46.05 Q 390.841 43.667 390.801 40.196 A 17.054 17.054 0 0 1 390.8 40 Q 390.8 36.6 392.2 33.65 Q 393.6 30.7 396.2 28.5 A 17.554 17.554 0 0 1 400.48 25.854 A 21.493 21.493 0 0 1 402.45 25.1 A 23.702 23.702 0 0 1 407.214 24.083 A 30.297 30.297 0 0 1 410.6 23.9 Z M 120.2 58.7 Q 115.7 63.4 112.55 66.75 Q 109.4 70.1 107.2 72.25 Q 105.387 74.022 104.083 75.013 A 14.326 14.326 0 0 1 103.55 75.4 A 7.405 7.405 0 0 1 102.668 75.928 Q 101.725 76.4 100.9 76.4 Q 99.592 76.4 98.328 75.353 A 6.731 6.731 0 0 1 98.15 75.2 A 4.962 4.962 0 0 1 97.417 74.401 Q 96.998 73.82 96.863 73.197 A 2.826 2.826 0 0 1 96.8 72.6 A 2.602 2.602 0 0 1 96.92 71.875 Q 97.252 70.749 98.5 68.95 A 62.782 62.782 0 0 1 100.141 66.701 Q 101.006 65.566 102.013 64.333 A 110.427 110.427 0 0 1 102.7 63.5 Q 105.2 60.5 108.1 57.25 Q 111 54 113.4 51.1 Q 110.2 47.4 107.35 43.9 Q 104.5 40.4 102.4 37.4 A 76.882 76.882 0 0 1 100.945 35.249 Q 99.831 33.538 99.05 32.1 Q 97.8 29.8 97.8 28.5 A 2.464 2.464 0 0 1 98.443 26.845 A 3.947 3.947 0 0 1 99.1 26.25 Q 99.974 25.612 100.758 25.402 A 2.872 2.872 0 0 1 101.5 25.3 A 1.423 1.423 0 0 1 101.993 25.407 Q 102.754 25.696 104.032 26.762 A 24.676 24.676 0 0 1 104.6 27.25 A 90.516 90.516 0 0 1 106.63 29.11 Q 108.003 30.403 109.55 31.95 Q 112.3 34.7 115.15 37.8 A 442.083 442.083 0 0 0 117.701 40.553 Q 118.906 41.841 119.992 42.978 A 260.038 260.038 0 0 0 120.3 43.3 Q 122.354 41.06 124.887 38.252 A 1231.753 1231.753 0 0 0 125.25 37.85 Q 128 34.8 130.7 32.1 A 88.768 88.768 0 0 1 132.986 29.891 Q 134.406 28.569 135.7 27.5 A 16.869 16.869 0 0 1 136.723 26.714 Q 138.305 25.6 139.3 25.6 A 3.282 3.282 0 0 1 140.632 25.894 A 4.706 4.706 0 0 1 141.5 26.4 A 2.811 2.811 0 0 1 142.202 27.117 A 2.447 2.447 0 0 1 142.6 28.5 A 3.832 3.832 0 0 1 142.49 29.36 Q 142.229 30.483 141.35 32.1 A 41.057 41.057 0 0 1 140.293 33.924 Q 139.68 34.925 138.938 36.032 A 81.976 81.976 0 0 1 138 37.4 Q 135.9 40.4 133.05 43.9 Q 130.2 47.4 127 51.1 Q 129.5 53.9 132.4 57.15 A 206.752 206.752 0 0 1 136.362 61.719 A 177.928 177.928 0 0 1 137.8 63.45 Q 139.812 65.905 141.273 67.97 A 51.878 51.878 0 0 1 141.95 68.95 A 20.418 20.418 0 0 1 142.633 70.03 Q 143.583 71.653 143.6 72.569 A 1.781 1.781 0 0 1 143.6 72.6 Q 143.6 74 142.25 75.2 Q 141.149 76.179 140.015 76.359 A 3.27 3.27 0 0 1 139.5 76.4 Q 138.45 76.4 136.845 75.324 A 15.448 15.448 0 0 1 136.05 74.75 A 43.379 43.379 0 0 1 134.367 73.386 Q 133.454 72.61 132.465 71.696 A 81.443 81.443 0 0 1 131.25 70.55 Q 128.6 68 125.75 64.85 Q 122.9 61.7 120.2 58.7 Z M 65.488 57.416 A 49.76 49.76 0 0 0 70.7 57.7 A 48.986 48.986 0 0 0 74.684 57.544 A 37.425 37.425 0 0 0 79.25 56.9 A 24.12 24.12 0 0 0 82.461 56.009 A 17.842 17.842 0 0 0 85.85 54.4 Q 88.6 52.7 90.1 49.9 A 10.828 10.828 0 0 0 90.321 49.465 Q 91.037 47.969 91.352 46.152 A 17.859 17.859 0 0 0 91.6 43.1 Q 91.6 38.6 89.75 35.25 Q 87.9 31.9 84.85 29.7 A 20.252 20.252 0 0 0 82.96 28.491 A 22.761 22.761 0 0 0 77.85 26.4 Q 73.9 25.3 69.7 25.3 Q 64.3 25.3 59.65 27 Q 55 28.7 51.6 32 A 21.747 21.747 0 0 0 49.434 34.446 A 24.547 24.547 0 0 0 46.25 40.1 A 25.492 25.492 0 0 0 44.772 45.336 A 33.587 33.587 0 0 0 44.3 51.1 A 34.707 34.707 0 0 0 44.711 56.572 A 25.162 25.162 0 0 0 46.3 62.3 A 25.532 25.532 0 0 0 46.689 63.187 A 21.881 21.881 0 0 0 51.9 70.35 A 22.033 22.033 0 0 0 53.8 71.883 A 23.874 23.874 0 0 0 60.45 75.2 A 31.551 31.551 0 0 0 64.629 76.236 A 38.026 38.026 0 0 0 71.3 76.8 A 39.171 39.171 0 0 0 72.307 76.787 Q 73.448 76.758 74.738 76.664 A 72.278 72.278 0 0 0 77.1 76.45 Q 80.4 76.1 83.35 75.15 A 18.911 18.911 0 0 0 85.619 74.262 A 14.395 14.395 0 0 0 88.35 72.6 A 6.425 6.425 0 0 0 88.781 72.233 A 4.902 4.902 0 0 0 90.4 68.5 Q 90.4 66.5 89.1 65.65 A 5.895 5.895 0 0 0 88.609 65.361 A 4.706 4.706 0 0 0 86.4 64.8 Q 85.3 64.8 84 65.15 A 520.152 520.152 0 0 1 83.626 65.251 Q 82.461 65.564 81 65.95 A 27.667 27.667 0 0 1 80.511 66.075 Q 78.984 66.449 77.05 66.75 Q 74.8 67.1 72 67.1 A 33.026 33.026 0 0 1 68.407 66.915 Q 66.094 66.662 64.19 66.061 A 13.793 13.793 0 0 1 60.05 64 A 12.07 12.07 0 0 1 56.132 58.953 A 16.838 16.838 0 0 1 55 54.8 A 50.58 50.58 0 0 0 55.281 54.912 Q 59.62 56.617 63.35 57.15 A 58.375 58.375 0 0 0 65.488 57.416 Z M 19.7 15.8 L 15.6 15.8 A 296.727 296.727 0 0 1 12.626 15.786 Q 10.294 15.763 8.45 15.7 Q 6.377 15.63 4.823 15.387 A 16.137 16.137 0 0 1 3.6 15.15 Q 2.353 14.855 1.558 14.323 A 3.416 3.416 0 0 1 0.85 13.7 Q 0 12.7 0 10.9 A 7.064 7.064 0 0 1 0.063 9.935 A 5.656 5.656 0 0 1 0.2 9.25 Q 0.4 8.5 1.1 7.85 A 3.919 3.919 0 0 1 1.818 7.329 Q 2.182 7.12 2.628 6.949 A 7.759 7.759 0 0 1 3.05 6.8 A 10.661 10.661 0 0 1 4.045 6.539 Q 4.532 6.433 5.096 6.349 A 24.693 24.693 0 0 1 6.3 6.2 Q 8.2 6.1 9.7 6 L 12.7 5.8 A 46.081 46.081 0 0 1 15.402 5.702 A 50.607 50.607 0 0 1 15.8 5.7 L 19.5 5.7 Q 25.4 5.7 30.65 5.8 Q 35.9 5.9 41.8 6.2 A 40.464 40.464 0 0 1 42.931 6.31 Q 44.525 6.488 45.5 6.75 Q 46.427 7 47.049 7.376 A 3.39 3.39 0 0 1 47.5 7.7 A 2.762 2.762 0 0 1 48.021 8.285 A 2.23 2.23 0 0 1 48.35 9.1 Q 48.5 9.9 48.5 10.9 A 4.249 4.249 0 0 1 48.188 12.55 A 3.988 3.988 0 0 1 47.25 13.9 Q 46 15.1 41.9 15.3 A 141.391 141.391 0 0 1 38.263 15.511 A 168.031 168.031 0 0 1 35.95 15.6 Q 32.8 15.7 29 15.8 Q 29.1 18.5 29.2 20.85 Q 29.3 23.2 29.4 25.6 Q 29.5 28 29.55 30.6 Q 29.6 33.2 29.6 36.4 L 29.6 45.05 Q 29.6 49.2 29.5 53.35 Q 29.4 57.5 29.3 61.7 A 417.283 417.283 0 0 1 29.048 69.28 A 462.819 462.819 0 0 1 29 70.4 A 31.662 31.662 0 0 1 28.919 71.728 Q 28.813 72.98 28.617 73.83 A 7.664 7.664 0 0 1 28.55 74.1 Q 28.301 75.027 27.924 75.649 A 3.39 3.39 0 0 1 27.6 76.1 A 2.762 2.762 0 0 1 27.015 76.622 A 2.23 2.23 0 0 1 26.2 76.95 Q 25.4 77.1 24.4 77.1 A 4.271 4.271 0 0 1 22.503 76.682 A 4.28 4.28 0 0 1 21.35 75.85 Q 20.392 74.892 20.05 72.258 A 22.151 22.151 0 0 1 19.9 70.5 A 168.769 168.769 0 0 1 19.696 65.361 A 197.018 197.018 0 0 1 19.65 62.9 Q 19.6 58.9 19.5 54.3 Q 19.4 49.7 19.4 44.35 L 19.4 32.5 Q 19.4 28.719 19.424 25.599 A 585.541 585.541 0 0 1 19.45 22.9 A 176.206 176.206 0 0 1 19.509 19.98 Q 19.55 18.54 19.615 17.267 A 91.87 91.87 0 0 1 19.7 15.8 Z M 228.9 15.8 L 224.8 15.8 A 296.727 296.727 0 0 1 221.826 15.786 Q 219.494 15.763 217.65 15.7 Q 215.577 15.63 214.023 15.387 A 16.137 16.137 0 0 1 212.8 15.15 Q 211.553 14.855 210.758 14.323 A 3.416 3.416 0 0 1 210.05 13.7 Q 209.2 12.7 209.2 10.9 A 7.064 7.064 0 0 1 209.263 9.935 A 5.656 5.656 0 0 1 209.4 9.25 Q 209.6 8.5 210.3 7.85 A 3.919 3.919 0 0 1 211.018 7.329 Q 211.382 7.12 211.828 6.949 A 7.759 7.759 0 0 1 212.25 6.8 A 10.661 10.661 0 0 1 213.245 6.539 Q 213.732 6.433 214.296 6.349 A 24.693 24.693 0 0 1 215.5 6.2 Q 217.4 6.1 218.9 6 L 221.9 5.8 A 46.081 46.081 0 0 1 224.602 5.702 A 50.607 50.607 0 0 1 225 5.7 L 228.7 5.7 Q 234.6 5.7 239.85 5.8 Q 245.1 5.9 251 6.2 A 40.464 40.464 0 0 1 252.131 6.31 Q 253.725 6.488 254.7 6.75 Q 255.627 7 256.249 7.376 A 3.39 3.39 0 0 1 256.7 7.7 A 2.762 2.762 0 0 1 257.221 8.285 A 2.23 2.23 0 0 1 257.55 9.1 Q 257.7 9.9 257.7 10.9 A 4.249 4.249 0 0 1 257.388 12.55 A 3.988 3.988 0 0 1 256.45 13.9 Q 255.2 15.1 251.1 15.3 A 141.391 141.391 0 0 1 247.463 15.511 A 168.031 168.031 0 0 1 245.15 15.6 Q 242 15.7 238.2 15.8 Q 238.3 18.5 238.4 20.85 Q 238.5 23.2 238.6 25.6 Q 238.7 28 238.75 30.6 Q 238.8 33.2 238.8 36.4 L 238.8 45.05 Q 238.8 49.2 238.7 53.35 Q 238.6 57.5 238.5 61.7 A 417.283 417.283 0 0 1 238.248 69.28 A 462.819 462.819 0 0 1 238.2 70.4 A 31.662 31.662 0 0 1 238.119 71.728 Q 238.013 72.98 237.817 73.83 A 7.664 7.664 0 0 1 237.75 74.1 Q 237.501 75.027 237.124 75.649 A 3.39 3.39 0 0 1 236.8 76.1 A 2.762 2.762 0 0 1 236.215 76.622 A 2.23 2.23 0 0 1 235.4 76.95 Q 234.6 77.1 233.6 77.1 A 4.271 4.271 0 0 1 231.703 76.682 A 4.28 4.28 0 0 1 230.55 75.85 Q 229.592 74.892 229.25 72.258 A 22.151 22.151 0 0 1 229.1 70.5 A 168.769 168.769 0 0 1 228.896 65.361 A 197.018 197.018 0 0 1 228.85 62.9 Q 228.8 58.9 228.7 54.3 Q 228.6 49.7 228.6 44.35 L 228.6 32.5 Q 228.6 28.719 228.624 25.599 A 585.541 585.541 0 0 1 228.65 22.9 A 176.206 176.206 0 0 1 228.709 19.98 Q 228.75 18.54 228.815 17.267 A 91.87 91.87 0 0 1 228.9 15.8 Z M 159.95 54.65 A 498.305 498.305 0 0 0 160.006 59.827 Q 160.094 65.269 160.3 69.6 A 22.151 22.151 0 0 0 160.45 71.358 Q 160.792 73.992 161.75 74.95 A 4.28 4.28 0 0 0 162.903 75.782 A 4.271 4.271 0 0 0 164.8 76.2 Q 165.8 76.2 166.55 76.05 Q 167.3 75.9 167.9 75.2 A 3.39 3.39 0 0 0 168.224 74.749 Q 168.601 74.127 168.85 73.2 A 7.664 7.664 0 0 0 168.917 72.93 Q 169.113 72.08 169.219 70.828 A 31.662 31.662 0 0 0 169.3 69.5 Q 169.5 65 169.6 61 Q 169.7 57 169.8 52.95 Q 169.9 48.9 169.9 44.5 L 169.9 34.8 A 11.835 11.835 0 0 0 170.901 34.937 A 14.847 14.847 0 0 0 172.3 35 L 174.6 35 Q 176.4 35 177.95 34.85 Q 179.5 34.7 180.65 34.2 A 5.243 5.243 0 0 0 180.757 34.152 A 4.425 4.425 0 0 0 182.5 32.75 Q 182.959 32.127 183.117 31.223 A 5.949 5.949 0 0 0 183.2 30.2 A 5.723 5.723 0 0 0 183.114 29.186 A 3.783 3.783 0 0 0 181.2 26.45 Q 179.2 25.3 175.5 25.3 A 79.46 79.46 0 0 0 175.148 25.301 A 88.269 88.269 0 0 0 172.6 25.35 Q 171.1 25.4 169.7 25.8 A 34.332 34.332 0 0 1 169.701 25.542 Q 169.704 25.148 169.716 24.709 A 58.477 58.477 0 0 1 169.75 23.75 Q 169.8 22.6 169.8 21.2 Q 169.8 19.2 169.65 17.1 A 18.497 18.497 0 0 0 169.442 15.339 A 14.417 14.417 0 0 0 168.95 13.3 A 9.037 9.037 0 0 0 168.429 12.017 A 6.751 6.751 0 0 0 167.4 10.5 A 3.24 3.24 0 0 0 166.064 9.603 A 3.783 3.783 0 0 0 164.8 9.4 Q 163.997 9.4 163.352 9.558 A 3.776 3.776 0 0 0 162.35 9.95 Q 161.66 10.35 161.181 11.383 A 7.187 7.187 0 0 0 160.85 12.25 A 9.476 9.476 0 0 0 160.768 12.526 Q 160.444 13.678 160.254 15.385 A 37.867 37.867 0 0 0 160.1 17.2 Q 159.9 20.4 159.9 25.7 A 10.086 10.086 0 0 0 159.345 25.616 Q 158.417 25.5 157.2 25.5 L 154.5 25.5 Q 147.3 25.5 147.3 30.3 A 8.093 8.093 0 0 0 147.341 31.135 Q 147.393 31.64 147.513 32.06 A 3.41 3.41 0 0 0 147.9 32.95 A 3.674 3.674 0 0 0 148.451 33.63 A 4.029 4.029 0 0 0 149.6 34.4 A 6.424 6.424 0 0 0 150.807 34.805 A 8.522 8.522 0 0 0 152.15 35 Q 153.6 35.1 155.4 35.1 L 157.55 35.1 A 33.224 33.224 0 0 0 158.164 35.095 Q 158.659 35.086 159.101 35.061 A 18.07 18.07 0 0 0 159.9 35 A 4739.565 4739.565 0 0 0 159.9 36.451 Q 159.902 41.492 159.914 46.025 A 2829.835 2829.835 0 0 0 159.95 54.65 Z M 279.9 25.4 Q 285.6 25.4 290.1 27.15 A 22.203 22.203 0 0 1 295.871 30.415 A 20.346 20.346 0 0 1 297.75 32.1 A 21.131 21.131 0 0 1 302.003 38.429 A 25.061 25.061 0 0 1 302.6 39.9 A 27.14 27.14 0 0 1 304.061 46.08 A 34.417 34.417 0 0 1 304.3 50.2 A 34.967 34.967 0 0 1 303.782 56.352 A 27.388 27.388 0 0 1 302.35 61.5 A 25.887 25.887 0 0 1 299.053 67.542 A 23.006 23.006 0 0 1 296.95 70 Q 293.5 73.5 288.75 75.4 A 26.878 26.878 0 0 1 280.47 77.233 A 31.678 31.678 0 0 1 278.4 77.3 A 30.207 30.207 0 0 1 273 76.839 A 22.877 22.877 0 0 1 267.65 75.2 A 22.987 22.987 0 0 1 261.3 71.003 A 21.502 21.502 0 0 1 259.85 69.5 Q 256.7 65.9 255.1 61.2 Q 253.5 56.5 253.5 51.3 A 30.607 30.607 0 0 1 254.187 44.706 A 26.022 26.022 0 0 1 255.35 40.85 Q 257.2 36.1 260.65 32.65 A 23.437 23.437 0 0 1 267.798 27.799 A 27.291 27.291 0 0 1 269 27.3 A 28.079 28.079 0 0 1 276.213 25.59 A 34.849 34.849 0 0 1 279.9 25.4 Z M 337.3 25.4 Q 343 25.4 347.5 27.15 A 22.203 22.203 0 0 1 353.271 30.415 A 20.346 20.346 0 0 1 355.15 32.1 A 21.131 21.131 0 0 1 359.403 38.429 A 25.061 25.061 0 0 1 360 39.9 A 27.14 27.14 0 0 1 361.461 46.08 A 34.417 34.417 0 0 1 361.7 50.2 A 34.967 34.967 0 0 1 361.182 56.352 A 27.388 27.388 0 0 1 359.75 61.5 A 25.887 25.887 0 0 1 356.453 67.542 A 23.006 23.006 0 0 1 354.35 70 Q 350.9 73.5 346.15 75.4 A 26.878 26.878 0 0 1 337.87 77.233 A 31.678 31.678 0 0 1 335.8 77.3 A 30.207 30.207 0 0 1 330.4 76.839 A 22.877 22.877 0 0 1 325.05 75.2 A 22.987 22.987 0 0 1 318.7 71.003 A 21.502 21.502 0 0 1 317.25 69.5 Q 314.1 65.9 312.5 61.2 Q 310.9 56.5 310.9 51.3 A 30.607 30.607 0 0 1 311.587 44.706 A 26.022 26.022 0 0 1 312.75 40.85 Q 314.6 36.1 318.05 32.65 A 23.437 23.437 0 0 1 325.198 27.799 A 27.291 27.291 0 0 1 326.4 27.3 A 28.079 28.079 0 0 1 333.613 25.59 A 34.849 34.849 0 0 1 337.3 25.4 Z M 371 61.9 A 1636.004 1636.004 0 0 0 371.063 64.783 Q 371.131 67.825 371.2 70.3 Q 371.4 74.4 372.6 75.65 A 3.988 3.988 0 0 0 373.95 76.588 A 4.249 4.249 0 0 0 375.6 76.9 Q 376.6 76.9 377.35 76.75 Q 378.1 76.6 378.7 75.9 A 3.39 3.39 0 0 0 379.024 75.449 Q 379.401 74.827 379.65 73.9 A 7.664 7.664 0 0 0 379.717 73.63 Q 379.913 72.78 380.019 71.528 A 31.662 31.662 0 0 0 380.1 70.2 A 462.819 462.819 0 0 0 380.148 69.08 A 417.283 417.283 0 0 0 380.4 61.5 Q 380.5 57.3 380.6 53.25 Q 380.7 49.2 380.7 45.05 L 380.7 36.4 Q 380.7 28.9 380.6 21.15 A 381.027 381.027 0 0 0 380.531 17.31 A 342.119 342.119 0 0 0 380.1 6.2 Q 379.9 2.2 378.6 1.1 Q 377.3 0 375.6 0 A 4.064 4.064 0 0 0 375.446 0.003 Q 374.44 0.041 373.693 0.583 A 3.56 3.56 0 0 0 372.8 1.55 A 5.413 5.413 0 0 0 372.568 1.948 Q 371.746 3.496 371.35 6.4 Q 370.9 9.7 370.8 14.8 Q 370.738 17.988 370.714 21.957 A 856.091 856.091 0 0 0 370.7 27 Q 370.7 33.5 370.75 39.7 Q 370.8 45.9 370.85 51.5 Q 370.9 57.1 371 61.9 Z M 285.252 66.907 A 11.691 11.691 0 0 0 285.8 66.65 A 13.906 13.906 0 0 0 289.493 64.008 A 12.907 12.907 0 0 0 290.55 62.8 Q 292.4 60.4 293.25 57.35 Q 294.1 54.3 294.1 51 A 24.047 24.047 0 0 0 293.716 46.635 A 20.752 20.752 0 0 0 293.25 44.65 A 15.378 15.378 0 0 0 291.679 40.987 A 13.661 13.661 0 0 0 290.65 39.5 A 11.821 11.821 0 0 0 286.657 36.293 A 13.942 13.942 0 0 0 286.15 36.05 Q 283.502 34.846 279.879 34.802 A 22.754 22.754 0 0 0 279.6 34.8 A 19.764 19.764 0 0 0 276.271 35.067 A 14.368 14.368 0 0 0 272.8 36.1 A 14.081 14.081 0 0 0 268.916 38.648 A 13.146 13.146 0 0 0 267.95 39.65 A 14.763 14.763 0 0 0 265.408 43.868 A 17.447 17.447 0 0 0 265 45 A 20.936 20.936 0 0 0 264.055 50.04 A 24.721 24.721 0 0 0 264 51.7 A 23.229 23.229 0 0 0 264.527 56.789 Q 265.406 60.707 267.75 63.55 Q 271.5 68.1 278.8 68.1 Q 282.52 68.1 285.252 66.907 Z M 342.652 66.907 A 11.691 11.691 0 0 0 343.2 66.65 A 13.906 13.906 0 0 0 346.893 64.008 A 12.907 12.907 0 0 0 347.95 62.8 Q 349.8 60.4 350.65 57.35 Q 351.5 54.3 351.5 51 A 24.047 24.047 0 0 0 351.116 46.635 A 20.752 20.752 0 0 0 350.65 44.65 A 15.378 15.378 0 0 0 349.079 40.987 A 13.661 13.661 0 0 0 348.05 39.5 A 11.821 11.821 0 0 0 344.057 36.293 A 13.942 13.942 0 0 0 343.55 36.05 Q 340.902 34.846 337.279 34.802 A 22.754 22.754 0 0 0 337 34.8 A 19.764 19.764 0 0 0 333.671 35.067 A 14.368 14.368 0 0 0 330.2 36.1 A 14.081 14.081 0 0 0 326.316 38.648 A 13.146 13.146 0 0 0 325.35 39.65 A 14.763 14.763 0 0 0 322.808 43.868 A 17.447 17.447 0 0 0 322.4 45 A 20.936 20.936 0 0 0 321.455 50.04 A 24.721 24.721 0 0 0 321.4 51.7 A 23.229 23.229 0 0 0 321.927 56.789 Q 322.806 60.707 325.15 63.55 Q 328.9 68.1 336.2 68.1 Q 339.92 68.1 342.652 66.907 Z M 70 34.5 Q 67.3 34.5 64.8 35.15 Q 62.3 35.8 60.25 37.25 A 11.988 11.988 0 0 0 57.253 40.338 A 14.159 14.159 0 0 0 56.8 41.05 A 12.881 12.881 0 0 0 55.655 43.597 Q 55.158 45.096 54.9 46.9 A 34.719 34.719 0 0 0 59.457 48.582 A 28.638 28.638 0 0 0 62.3 49.25 A 41.49 41.49 0 0 0 68.169 49.869 A 47.659 47.659 0 0 0 69.9 49.9 A 38.324 38.324 0 0 0 72.978 49.786 Q 75.976 49.543 77.895 48.788 A 8.632 8.632 0 0 0 78.65 48.45 A 4.931 4.931 0 0 0 81.333 44.903 A 8.152 8.152 0 0 0 81.5 43.2 A 8.229 8.229 0 0 0 79.023 37.274 A 10.85 10.85 0 0 0 78.85 37.1 A 7.678 7.678 0 0 0 76.238 35.466 Q 73.778 34.5 70 34.5 Z"
       vector-effect="non-scaling-stroke"
       id="path1"
       style="fill:#ecf9fb;fill-opacity:1" /></g><g
     transform="matrix(0.19549591,0,0,0.19549591,114.53777,72.635831)"
     id="g8"><g
       id="background-images-a6f01dc5" /><g
       id="graphpaper-a6f01dc5"><g
         id="axis-a6f01dc5"><g
           id="g2"><g
             id="g1"><path
               fill="none"
               stroke="#000000"
               class="dcg-svg-tickmark"
               paint-order="fill stroke markers"
               d=""
               stroke-opacity="0.9"
               stroke-miterlimit="2"
               stroke-width="1.5"
               stroke-dasharray="none"
               id="path1-6" /></g></g></g></g><g
       id="expressions-a6f01dc5"><g
         id="sketch-a6f01dc5"
         style="fill:#000000;fill-opacity:1;stroke-width:51.15196528;stroke-dasharray:none"><title
           id="title2">Expression 1</title><path
           fill="#000000"
           stroke="none"
           paint-order="stroke fill markers"
           d=""
           fill-opacity="0.4"
           id="path2"
           style="fill:#000000;fill-opacity:1;stroke-width:51.15196528;stroke-dasharray:none" /></g><g
         id="g5"
         transform="matrix(0.84902695,0,0,0.84902695,266.77887,-279.27478)"><title
           id="title3">Expression 2</title><path
           fill="#388c46"
           stroke="none"
           paint-order="stroke fill markers"
           d=""
           fill-opacity="0.4"
           id="path4" /><path
           fill="#388c46"
           stroke="none"
           class="dcg-svg-region"
           paint-order="stroke fill markers"
           d="m 162.37183,56.02417 0.71411,0.05493 0.16479,-0.05493 0.71411,0.05493 -0.0342,23.544962 -5.2598,1.703002 -5.12169,1.909567 -2.76788,1.139489 -7.28974,3.382369 -9.58826,5.365009 -4.21575,2.725075 -4.50443,3.187103 -6.70162,4.943814 h -2.417 l -0.0549,-0.27466 0.0549,-47.62573 0.60425,-0.05493 0.71411,0.05493 0.1648,-0.05493 0.71411,0.05493 0.16479,-0.05493 0.71412,0.05493 0.16479,-0.05493 0.71411,0.05493 0.1648,-0.05493 0.71411,0.05493 0.16479,-0.05493 0.71411,0.05493 0.1648,-0.05493 0.71411,0.05493 0.16479,-0.05493 0.71412,0.05493 0.16479,-0.05493 0.71411,0.05493 0.1648,-0.05493 0.71411,0.05493 0.16479,-0.05493 0.71412,0.05493 0.16479,-0.05493 0.71411,0.05493 0.1648,-0.05493 0.71411,0.05493 0.16479,-0.05493 0.71411,0.05493 0.1648,-0.05493 0.71411,0.05493 0.16479,-0.05493 0.71412,0.05493 0.16479,-0.05493 0.71411,0.05493 0.1648,-0.05493 0.71411,0.05493 0.16479,-0.05493 0.71411,0.05493 0.1648,-0.05493 0.71411,0.05493 0.1648,-0.05493 0.71411,0.05493 0.16479,-0.05493 0.71411,0.05493 0.1648,-0.05493 0.71411,0.05493 0.16479,-0.05493 0.71412,0.05493 0.16479,-0.05493 0.71411,0.05493 0.1648,-0.05493 0.71411,0.05493 0.16479,-0.05493 0.71411,0.05493 0.1648,-0.05493 0.71411,0.05493 0.1648,-0.05493 0.71411,0.05493 0.16479,-0.05493 0.71411,0.05493 0.1648,-0.05493 0.71411,0.05493 0.16479,-0.05493 0.71412,0.05493 0.16479,-0.05493 0.71411,0.05493 0.1648,-0.05493 0.71411,0.05493 0.16479,-0.05493 0.71411,0.05493 0.1648,-0.05493 0.71411,0.05493 0.1648,-0.05493 0.71411,0.05493 0.16479,-0.05493 0.71411,0.05493 0.1648,-0.05493 0.71411,0.05493 0.16479,-0.05493 0.71412,0.05493 0.16479,-0.05493 0.71411,0.05493 0.1648,-0.05493 0.71411,0.05493 0.16479,-0.05493 0.71411,0.05493 0.1648,-0.05493 0.71411,0.05493 0.1648,-0.05493 0.71411,0.05493 0.16479,-0.05493 0.71411,0.05493 0.1648,-0.05493 0.71411,0.05493 0.16479,-0.05493 0.71412,0.05493 0.16479,-0.05493 0.71411,0.05493 0.1648,-0.05493 0.71411,0.05493 0.16479,-0.05493 0.71411,0.05493 0.1648,-0.05493 0.71411,0.05493 0.1648,-0.05493 m 35.15625,0 0.71411,0.05493 0.16479,-0.05493 0.71411,0.05493 0.1648,-0.05493 0.71411,0.05493 0.16479,-0.05493 0.71412,0.05493 0.16479,-0.05493 0.71411,0.05493 0.1648,-0.05493 0.71411,0.05493 0.16479,-0.05493 0.71411,0.05493 0.1648,-0.05493 0.71411,0.05493 0.1648,-0.05493 0.71411,0.05493 0.16479,-0.05493 0.71411,0.05493 0.1648,-0.05493 0.71411,0.05493 0.16479,-0.05493 0.71412,0.05493 0.16479,-0.05493 0.71411,0.05493 0.1648,-0.05493 0.71411,0.05493 0.16479,-0.05493 0.71411,0.05493 0.1648,-0.05493 0.71411,0.05493 0.1648,-0.05493 0.71411,0.05493 0.16479,-0.05493 0.71411,0.05493 0.1648,-0.05493 0.71411,0.05493 0.16479,-0.05493 0.71412,0.05493 0.16479,-0.05493 0.71411,0.05493 0.1648,-0.05493 0.71411,0.05493 0.16479,-0.05493 0.71411,0.05493 0.1648,-0.05493 0.71411,0.05493 0.1648,-0.05493 0.71411,0.05493 0.16479,-0.05493 0.71411,0.05493 0.1648,-0.05493 0.71411,0.05493 0.16479,-0.05493 0.71412,0.05493 0.16479,-0.05493 0.71411,0.05493 0.1648,-0.05493 0.93384,0.164795 v 20.324707 l -0.21973,0.08361 -4.94723,-0.849267 -6.24646,-0.784789 -5.50553,-0.430065 -7.93328,-0.193623 -6.12922,0.193623 -8.95045,0.823544 -6.23198,0.958545 -1.73652,0.198426 V 56.188965 l 0.38453,-0.164795 0.71411,0.05493 0.16479,-0.05493 0.71411,0.05493 0.1648,-0.05493 0.71411,0.05493 0.16479,-0.05493 0.71412,0.05493 0.16479,-0.05493 0.71411,0.05493 0.1648,-0.05493 0.71411,0.05493 0.16479,-0.05493 0.71411,0.05493 0.1648,-0.05493 0.71411,0.05493 0.1648,-0.05493 0.71411,0.05493 0.16479,-0.05493 0.71411,0.05493 0.1648,-0.05493 0.71411,0.05493 0.16479,-0.05493 0.71412,0.05493 0.16479,-0.05493 0.71411,0.05493 0.1648,-0.05493 0.71411,0.05493 0.16479,-0.05493 0.71411,0.05493 0.1648,-0.05493 0.71411,0.05493 0.1648,-0.05493 0.71411,0.05493 0.16479,-0.05493 0.71411,0.05493 0.1648,-0.05493 0.71411,0.05493 0.16479,-0.05493 0.71412,0.05493 0.16479,-0.05493 0.71411,0.05493 0.1648,-0.05493 0.71411,0.05493 0.16479,-0.05493 0.71411,0.05493 0.1648,-0.05493 0.71411,0.05493 0.1648,-0.05493 m -108.764652,59.98535 0.05493,0.0549 0.05493,-0.0549 1.263428,0.0549 1.263427,-0.0549 0.05493,0.0549 0.05493,-0.0549 1.263427,0.0549 1.263428,-0.0549 0.05493,0.0549 0.05493,-0.0549 1.263427,0.0549 1.263428,-0.0549 0.05493,0.0549 0.05493,-0.0549 1.263428,0.0549 1.263428,-0.0549 0.05493,0.0549 0.05493,-0.0549 1.263421,0.0549 1.26343,-0.0549 0.0549,0.0549 0.0549,-0.0549 1.26343,0.0549 h 0.65918 l -0.0643,2.94748 -2.95712,3.64432 -2.911152,3.87998 -3.515625,5.14314 -3.098511,5.03938 -3.932739,7.28915 -3.12388,6.77335 -2.393838,6.05413 -1.563792,4.543 -0.828646,2.58646 H 56.02417 v -47.90039 l 0.32959,-0.0549 1.263427,0.0549 1.263428,-0.0549 0.05493,0.0549 0.05493,-0.0549 1.263427,0.0549 1.263428,-0.0549 0.05493,0.0549 0.05493,-0.0549 1.263428,0.0549 1.263428,-0.0549 0.05493,0.0549 0.05493,-0.0549 1.263428,0.0549 1.263427,-0.0549 0.05493,0.0549 0.05493,-0.0549 1.263427,0.0549 1.263428,-0.0549 0.05493,0.0549 0.05493,-0.0549 1.263427,0.0549 1.263428,-0.0549 0.05493,0.0549 0.05493,-0.0549 1.263428,0.0549 1.263428,-0.0549 0.05493,0.0549 0.05493,-0.0549 1.263428,0.0549 1.263427,-0.0549 0.05493,0.0549 0.05493,-0.0549 1.263427,0.0549 1.263428,-0.0549 0.05493,0.0549 0.05493,-0.0549 1.263427,0.0549 1.263428,-0.0549 0.05493,0.0549 0.05493,-0.0549 1.263428,0.0549 1.263428,-0.0549 0.05493,0.0549 0.05493,-0.0549 1.263428,0.0549 1.263427,-0.0549 0.05493,0.0549 0.05493,-0.0549 h 0.769043 m 87.904354,3.52935 3.99628,-1.05271 4.77581,-0.98699 4.89216,-0.71525 4.51565,-0.40113 4.71287,-0.15744 4.66069,0.10526 4.56782,0.3559 4.49348,0.59735 4.29558,0.80524 4.39454,1.06792 1.97754,0.64278 v 44.16504 l -2.75931,-0.0971 -3.12746,-1.66068 -3.42572,-1.45411 -2.63214,-0.88349 -3.21651,-0.82488 -3.51562,-0.59918 -3.51563,-0.29637 h -3.51562 l -3.51563,0.29637 -3.51562,0.59918 -3.34651,0.864 -2.99899,1.03327 -3.44899,1.51826 -2.94965,1.50476 h -2.417 V 119.7998 l 0.61798,-0.26093 m -12.70294,4.87519 v 39.55078 h -39.59455 l 1.80159,-3.56018 2.22052,-3.88726 1.4454,-2.29567 3.59349,-5.08421 0.71778,-0.92595 3.76774,-4.46157 2.84475,-2.98844 4.33973,-4.04281 5.67996,-4.51182 5.73615,-3.81453 4.81072,-2.70842 2.63672,-1.31369 v 0.0438 m -15.76538,51.60828 0.82398,0.0275 h 0.21972 14.72168 l -0.0971,2.75931 -1.47003,2.73386 -1.18317,2.63672 -1.07499,2.94642 -0.67789,2.32701 -0.75519,3.51563 -0.40221,3.0239 -0.15523,2.24954 v 3.51562 l 0.29637,3.51563 0.46264,2.85332 0.6623,2.82926 0.97285,3.10648 1.04158,2.63672 1.34103,2.79688 1.03907,2.0371 -0.0549,2.44446 -0.82397,-0.0275 h -0.21973 -43.06641 l -0.21972,-0.47641 -0.96698,-3.61033 -0.88158,-4.04315 -0.67845,-4.06479 -0.46275,-3.93178 -0.2838,-4.11073 -0.0819,-3.99225 0.11487,-4.11529 0.30179,-3.95508 0.49144,-3.95508 0.68325,-3.94882 0.88365,-3.96133 0.95577,-3.51563 0.14437,-0.21973 h 0.65918 l 27.74048,-0.0275 m -84.374999,0 0.823974,0.0275 h 0.219727 11.645508 l 0.08361,0.21973 -0.849267,4.94723 -0.6224,4.72074 -0.162389,1.52572 -0.430064,5.50553 -0.193624,7.93328 0.193624,6.12922 0.592453,7.03125 0.764969,5.64071 0.623092,4.24699 H 56.161499 L 56.02417,223.5657 v -47.29614 l 0.137329,-0.21973 7.662964,-0.0275 M 281.90308,56.02417 l 0.71411,0.05493 0.16479,-0.05493 0.71411,0.05493 0.1648,-0.05493 0.27466,0.05493 0.0549,0.274658 -0.0549,47.625732 -2.94748,-0.0644 -3.64432,-2.9571 -3.87997,-2.911167 -5.14314,-3.515625 -5.03939,-3.09851 -7.28914,-3.93274 -9.54124,-4.263367 -5.12169,-1.909567 -5.29402,-1.737222 v -23.51069 l 0.16479,-0.05493 0.71411,0.05493 0.1648,-0.05493 0.71411,0.05493 0.16479,-0.05493 0.71411,0.05493 0.1648,-0.05493 0.71411,0.05493 0.1648,-0.05493 0.71411,0.05493 0.16479,-0.05493 0.71411,0.05493 0.1648,-0.05493 0.71411,0.05493 0.16479,-0.05493 0.71412,0.05493 0.16479,-0.05493 0.71411,0.05493 0.1648,-0.05493 0.71411,0.05493 0.16479,-0.05493 0.71411,0.05493 0.1648,-0.05493 0.71411,0.05493 0.1648,-0.05493 0.71411,0.05493 0.16479,-0.05493 0.71411,0.05493 0.1648,-0.05493 0.71411,0.05493 0.16479,-0.05493 0.71412,0.05493 0.16479,-0.05493 0.71411,0.05493 0.1648,-0.05493 0.71411,0.05493 0.16479,-0.05493 0.71411,0.05493 0.1648,-0.05493 0.71411,0.05493 0.1648,-0.05493 0.71411,0.05493 0.16479,-0.05493 0.71411,0.05493 0.1648,-0.05493 0.71411,0.05493 0.16479,-0.05493 0.71412,0.05493 0.16479,-0.05493 0.71411,0.05493 0.1648,-0.05493 0.71411,0.05493 0.16479,-0.05493 0.71411,0.05493 0.1648,-0.05493 0.71411,0.05493 0.1648,-0.05493 0.71411,0.05493 0.16479,-0.05493 0.71411,0.05493 0.1648,-0.05493 0.71411,0.05493 0.16479,-0.05493 0.71412,0.05493 0.16479,-0.05493 0.71411,0.05493 0.1648,-0.05493 0.71411,0.05493 0.16479,-0.05493 0.71411,0.05493 0.1648,-0.05493 0.71411,0.05493 0.1648,-0.05493 0.71411,0.05493 0.16479,-0.05493 0.71411,0.05493 0.1648,-0.05493 0.71411,0.05493 0.16479,-0.05493 0.71412,0.05493 0.16479,-0.05493 0.71411,0.05493 0.1648,-0.05493 0.71411,0.05493 0.16479,-0.05493 0.71411,0.05493 0.1648,-0.05493 0.71411,0.05493 0.1648,-0.05493 0.71411,0.05493 0.16479,-0.05493 0.71411,0.05493 0.1648,-0.05493 0.71411,0.05493 0.16479,-0.05493 0.71412,0.05493 0.16479,-0.05493 0.71411,0.05493 0.1648,-0.05493 0.71411,0.05493 0.16479,-0.05493 0.71411,0.05493 0.1648,-0.05493 0.71411,0.05493 0.1648,-0.05493 m 59.98535,59.985348 0.0549,0.0549 0.0549,-0.0549 1.26343,0.0549 h 0.71411 v 47.90039 l -23.59989,-0.0342 -1.39356,-4.36031 -1.61244,-4.46644 -1.74606,-4.32262 -3.38237,-7.28974 -4.83011,-8.71541 -1.94265,-3.09673 -3.77915,-5.50749 -3.34031,-4.39454 -2.32878,-3.07617 v -2.63672 l 0.27466,-0.0549 1.26342,0.0549 1.26343,-0.0549 0.0549,0.0549 0.0549,-0.0549 1.26343,0.0549 1.26343,-0.0549 0.0549,0.0549 0.0549,-0.0549 1.26343,0.0549 1.26343,-0.0549 0.0549,0.0549 0.0549,-0.0549 1.26343,0.0549 1.26343,-0.0549 0.0549,0.0549 0.0549,-0.0549 1.26343,0.0549 1.26343,-0.0549 0.0549,0.0549 0.0549,-0.0549 1.26343,0.0549 1.26343,-0.0549 0.0549,0.0549 0.0549,-0.0549 1.26343,0.0549 1.26342,-0.0549 0.0549,0.0549 0.0549,-0.0549 1.26342,0.0549 1.26343,-0.0549 0.0549,0.0549 0.0549,-0.0549 1.26342,0.0549 1.26343,-0.0549 0.0549,0.0549 0.0549,-0.0549 1.26343,0.0549 1.26343,-0.0549 0.0549,0.0549 0.0549,-0.0549 1.26343,0.0549 1.26343,-0.0549 0.0549,0.0549 0.0549,-0.0549 1.26343,0.0549 1.26343,-0.0549 0.0549,0.0549 0.0549,-0.0549 1.26343,0.0549 1.26343,-0.0549 0.0549,0.0549 0.0549,-0.0549 1.26343,0.0549 1.26343,-0.0549 0.0549,0.0549 0.0549,-0.0549 1.26343,0.0549 1.26342,-0.0549 0.0549,0.0549 0.0549,-0.0549 1.26342,0.0549 1.26343,-0.0549 0.0549,0.0549 0.0549,-0.0549 1.26342,0.0549 1.26343,-0.0549 0.0549,0.0549 0.0549,-0.0549 h 0.76905 m -0.32959,60.01282 0.82397,0.0275 h 0.21973 1.23596 l 0.13733,0.38453 v 47.29614 l -0.13733,0.21973 h -20.35217 l -0.0836,-0.21973 0.84927,-4.94723 0.6224,-4.72074 0.16239,-1.52572 0.43006,-5.50553 0.19363,-7.93328 -0.19363,-6.12922 -0.59245,-7.03125 -0.76497,-5.64071 -0.62309,-4.24699 18.07251,-0.0275 m -105.49404,-51.63792 4.36489,2.24102 3.05291,1.76696 2.29569,1.44542 6.01014,4.31125 4.46157,3.76774 2.98844,2.84475 4.04281,4.33974 3.28746,4.03622 1.22436,1.64373 3.81453,5.73615 2.22052,3.88726 1.80159,3.56018 h -39.59455 v -39.59455 l 0.0296,0.0141 m 24.63466,51.63792 0.82398,0.0275 h 0.21972 18.45704 l 0.21972,0.47641 0.96698,3.61033 0.88158,4.04315 0.67845,4.06479 0.46275,3.93178 0.2838,4.11073 0.0819,3.99225 -0.11487,4.11529 -0.30179,3.95508 -0.49144,3.95508 -0.68325,3.94882 -0.88365,3.96133 -0.95577,3.51563 -0.14437,0.21973 h -0.65918 -43.50586 l 0.0971,-2.75931 1.47003,-2.73386 1.18317,-2.63672 1.07499,-2.94642 0.67789,-2.32702 0.75519,-3.51562 0.40221,-3.0239 0.15523,-2.24954 v -3.51562 l -0.29637,-3.51563 -0.46264,-2.85332 -0.6623,-2.82926 -0.97285,-3.10648 -1.04158,-2.63672 -1.34103,-2.79688 -1.03907,-2.0371 0.0549,-2.44446 0.82397,0.0275 h 0.21973 l 23.56567,-0.0275 m -24.6643,60.01282 h 39.59455 l -1.80159,3.56018 -2.22052,3.88726 -1.4454,2.29567 -3.59349,5.08421 -0.71778,0.92595 -3.76774,4.46157 -2.84475,2.98844 -4.33973,4.04281 -5.67996,4.51182 -5.73615,3.81453 -4.81073,2.70842 -2.63671,1.31369 v -39.59455 m -24.02959,4.09541 3.12899,-1.07239 3.44899,-1.51826 2.94965,-1.50476 h 2.417 v 44.16504 l -0.65918,0.27286 -3.95508,1.04078 -4.77581,0.98699 -4.89216,0.71525 -4.51565,0.40113 -4.71287,0.15744 -4.66069,-0.10526 -4.56782,-0.3559 -4.49348,-0.59735 -4.29559,-0.80524 -4.39453,-1.06792 -1.97754,-0.64278 v -44.16504 l 2.75931,0.0971 3.12746,1.66068 3.42572,1.45411 2.63214,0.88349 3.21651,0.82488 3.51562,0.59918 3.51563,0.29637 h 3.51562 l 3.51563,-0.29637 3.51562,-0.59918 3.21651,-0.82488 m 99.61552,43.80498 -1.26342,0.0549 -0.0549,-0.0549 -0.0549,0.0549 -1.26343,-0.0549 -1.26342,0.0549 -0.0549,-0.0549 -0.0549,0.0549 -1.26342,-0.0549 -1.26343,0.0549 -0.0549,-0.0549 -0.0549,0.0549 -1.26343,-0.0549 -1.26343,0.0549 -0.0549,-0.0549 -0.0549,0.0549 -1.26343,-0.0549 -1.26343,0.0549 -0.0549,-0.0549 -0.0549,0.0549 -1.26343,-0.0549 -1.26343,0.0549 -0.0549,-0.0549 -0.0549,0.0549 -1.0437,-0.27466 0.0643,-2.72775 2.95712,-3.64432 2.91115,-3.87998 3.51563,-5.14314 3.09851,-5.03938 3.93274,-7.28915 3.12388,-6.77335 2.39384,-6.05413 1.56379,-4.543 0.82865,-2.58646 H 343.975 v 47.90039 l -0.32959,0.0549 -1.26343,-0.0549 -1.26343,0.0549 -0.0549,-0.0549 -0.0549,0.0549 -1.26343,-0.0549 -1.26342,0.0549 -0.0549,-0.0549 -0.0549,0.0549 -1.26343,-0.0549 -1.26342,0.0549 -0.0549,-0.0549 -0.0549,0.0549 -1.26342,-0.0549 -1.26343,0.0549 -0.0549,-0.0549 -0.0549,0.0549 -1.26343,-0.0549 -1.26343,0.0549 -0.0549,-0.0549 -0.0549,0.0549 -1.26343,-0.0549 -1.26343,0.0549 -0.0549,-0.0549 -0.0549,0.0549 -1.26343,-0.0549 -1.26343,0.0549 -0.0549,-0.0549 -0.0549,0.0549 -1.26343,-0.0549 -1.26343,0.0549 -0.0549,-0.0549 -0.0549,0.0549 -1.26343,-0.0549 -1.26343,0.0549 -0.0549,-0.0549 -0.0549,0.0549 -1.26343,-0.0549 -1.26342,0.0549 -0.0549,-0.0549 -0.0549,0.0549 -1.26343,-0.0549 -1.26342,0.0549 -0.0549,-0.0549 -0.0549,0.0549 -1.26342,-0.0549 -1.26343,0.0549 -0.0549,-0.0549 -0.0549,0.0549 -0.38453,-0.0549 m -29.66308,12.08496 h 1.97754 l 0.0549,0.27466 -0.0549,47.62573 -0.60425,0.0549 -0.71411,-0.0549 -0.1648,0.0549 -0.71411,-0.0549 -0.16479,0.0549 -0.71412,-0.0549 -0.16479,0.0549 -0.71411,-0.0549 -0.1648,0.0549 -0.71411,-0.0549 -0.16479,0.0549 -0.71411,-0.0549 -0.1648,0.0549 -0.71411,-0.0549 -0.16479,0.0549 -0.71412,-0.0549 -0.16479,0.0549 -0.71411,-0.0549 -0.1648,0.0549 -0.71411,-0.0549 -0.16479,0.0549 -0.71412,-0.0549 -0.16479,0.0549 -0.71411,-0.0549 -0.1648,0.0549 -0.71411,-0.0549 -0.16479,0.0549 -0.71411,-0.0549 -0.1648,0.0549 -0.71411,-0.0549 -0.16479,0.0549 -0.71412,-0.0549 -0.16479,0.0549 -0.71411,-0.0549 -0.1648,0.0549 -0.71411,-0.0549 -0.16479,0.0549 -0.71412,-0.0549 -0.16479,0.0549 -0.71411,-0.0549 -0.1648,0.0549 -0.71411,-0.0549 -0.16479,0.0549 -0.71411,-0.0549 -0.1648,0.0549 -0.71411,-0.0549 -0.16479,0.0549 -0.71412,-0.0549 -0.16479,0.0549 -0.71411,-0.0549 -0.1648,0.0549 -0.71411,-0.0549 -0.16479,0.0549 -0.71412,-0.0549 -0.16479,0.0549 -0.71411,-0.0549 -0.1648,0.0549 -0.71411,-0.0549 -0.16479,0.0549 -0.71411,-0.0549 -0.1648,0.0549 -0.71411,-0.0549 -0.16479,0.0549 -0.71412,-0.0549 -0.16479,0.0549 -0.71411,-0.0549 -0.1648,0.0549 -0.71411,-0.0549 -0.16479,0.0549 -0.71412,-0.0549 -0.16479,0.0549 -0.71411,-0.0549 -0.1648,0.0549 -0.71411,-0.0549 -0.16479,0.0549 -0.71411,-0.0549 -0.1648,0.0549 -0.71411,-0.0549 -0.16479,0.0549 -0.71412,-0.0549 -0.16479,0.0549 -0.71411,-0.0549 -0.1648,0.0549 -0.71411,-0.0549 -0.16479,0.0549 -0.71412,-0.0549 -0.16479,0.0549 -0.71411,-0.0549 -0.1648,0.0549 -0.71411,-0.0549 -0.16479,0.0549 -0.71411,-0.0549 -0.1648,0.0549 -0.71411,-0.0549 -0.16479,0.0549 -0.71412,-0.0549 -0.16479,0.0549 -0.71411,-0.0549 -0.1648,0.0549 -0.71411,-0.0549 -0.16479,0.0549 -0.71412,-0.0549 -0.16479,0.0549 -0.71411,-0.0549 -0.1648,0.0549 -0.71411,-0.0549 -0.16479,0.0549 -0.71411,-0.0549 0.0342,-23.54496 5.2598,-1.70301 5.12169,-1.90956 2.76788,-1.13949 7.28974,-3.38237 9.58826,-5.36501 4.21575,-2.72507 4.50443,-3.18711 6.70162,-4.94381 h 0.43946 m -58.00781,27.46582 v 20.32471 l -0.38453,0.16479 -0.71411,-0.0549 -0.16479,0.0549 -0.71411,-0.0549 -0.1648,0.0549 -0.71411,-0.0549 -0.16479,0.0549 -0.71412,-0.0549 -0.16479,0.0549 -0.71411,-0.0549 -0.1648,0.0549 -0.71411,-0.0549 -0.16479,0.0549 -0.71412,-0.0549 -0.16479,0.0549 -0.71411,-0.0549 -0.1648,0.0549 -0.71411,-0.0549 -0.16479,0.0549 -0.71411,-0.0549 -0.1648,0.0549 -0.71411,-0.0549 -0.16479,0.0549 -0.71412,-0.0549 -0.16479,0.0549 -0.71411,-0.0549 -0.1648,0.0549 -0.71411,-0.0549 -0.16479,0.0549 -0.71412,-0.0549 -0.16479,0.0549 -0.71411,-0.0549 -0.1648,0.0549 -0.71411,-0.0549 -0.16479,0.0549 -0.71411,-0.0549 -0.1648,0.0549 -0.71411,-0.0549 -0.16479,0.0549 -0.71412,-0.0549 -0.16479,0.0549 -0.71411,-0.0549 -0.1648,0.0549 -0.71411,-0.0549 -0.16479,0.0549 -0.71412,-0.0549 -0.16479,0.0549 -0.71411,-0.0549 -0.1648,0.0549 -0.71411,-0.0549 -0.16479,0.0549 -0.71411,-0.0549 -0.1648,0.0549 -0.71411,-0.0549 -0.16479,0.0549 -0.71412,-0.0549 -0.16479,0.0549 -0.71411,-0.0549 -0.1648,0.0549 -0.71411,-0.0549 -0.16479,0.0549 -0.71412,-0.0549 -0.16479,0.0549 -0.71411,-0.0549 -0.1648,0.0549 -0.71411,-0.0549 -0.16479,0.0549 -0.71411,-0.0549 -0.1648,0.0549 -0.71411,-0.0549 -0.16479,0.0549 -0.71412,-0.0549 -0.16479,0.0549 -0.71411,-0.0549 -0.1648,0.0549 -0.71411,-0.0549 -0.16479,0.0549 -0.71412,-0.0549 -0.16479,0.0549 -0.71411,-0.0549 -0.1648,0.0549 -0.71411,-0.0549 -0.16479,0.0549 -0.71411,-0.0549 -0.1648,0.0549 -0.71411,-0.0549 -0.16479,0.0549 -0.71412,-0.0549 -0.16479,0.0549 -0.71411,-0.0549 -0.1648,0.0549 -0.71411,-0.0549 -0.16479,0.0549 -0.71412,-0.0549 -0.16479,0.0549 -0.71411,-0.0549 -0.1648,0.0549 -0.71411,-0.0549 -0.16479,0.0549 -0.71411,-0.0549 -0.1648,0.0549 -0.71411,-0.0549 -0.16479,0.0549 -0.71412,-0.0549 -0.16479,0.0549 -0.71411,-0.0549 -0.1648,0.0549 -0.93384,-0.16479 V 323.4863 l 0.21973,-0.0836 4.94723,0.84927 6.24646,0.78479 5.50553,0.43006 7.93328,0.19363 6.12922,-0.19363 8.95045,-0.82354 6.23198,-0.95855 1.73652,-0.19842 m -156.665044,-87.45117 12.338908,0.0342 1.393553,4.36031 1.612443,4.46644 1.74606,4.32262 3.382371,7.28974 4.830106,8.71541 1.942653,3.09673 3.77915,5.50749 3.34031,4.39454 2.32878,3.07617 v 2.63672 l -0.27466,0.0549 -1.26342,-0.0549 -1.26343,0.0549 -0.0549,-0.0549 -0.0549,0.0549 -1.263433,-0.0549 -1.263427,0.0549 -0.05493,-0.0549 -0.05493,0.0549 -1.263427,-0.0549 -1.263428,0.0549 -0.05493,-0.0549 -0.05493,0.0549 -1.263428,-0.0549 -1.263428,0.0549 -0.05493,-0.0549 -0.05493,0.0549 -1.263428,-0.0549 -1.263427,0.0549 -0.05493,-0.0549 -0.05493,0.0549 -1.263428,-0.0549 -1.263427,0.0549 -0.05493,-0.0549 -0.05493,0.0549 -1.263427,-0.0549 -1.263428,0.0549 -0.05493,-0.0549 -0.05493,0.0549 -1.263428,-0.0549 -1.263428,0.0549 -0.05493,-0.0549 -0.05493,0.0549 -1.263428,-0.0549 -1.263427,0.0549 -0.05493,-0.0549 -0.05493,0.0549 -1.263428,-0.0549 -1.263427,0.0549 -0.05493,-0.0549 -0.05493,0.0549 -1.263427,-0.0549 -1.263428,0.0549 -0.05493,-0.0549 -0.05493,0.0549 -1.263428,-0.0549 -1.263428,0.0549 -0.05493,-0.0549 -0.05493,0.0549 -1.263428,-0.0549 -1.263427,0.0549 -0.05493,-0.0549 -0.05493,0.0549 -1.263428,-0.0549 -1.263427,0.0549 -0.05493,-0.0549 -0.05493,0.0549 -1.263427,-0.0549 -1.263428,0.0549 -0.05493,-0.0549 -0.05493,0.0549 -1.263428,-0.0549 -1.263428,0.0549 -0.05493,-0.0549 -0.05493,0.0549 -1.263428,-0.0549 -1.263427,0.0549 -0.05493,-0.0549 -0.05493,0.0549 -1.263428,-0.0549 -1.263427,0.0549 -0.05493,-0.0549 -0.05493,0.0549 -0.219726,-0.0549 v -47.90039 h 11.260986 m 57.085134,0 h 39.59455 v 39.59455 l -3.56021,-1.80159 -3.88723,-2.22052 -2.29569,-1.44542 -6.01014,-4.31125 -4.46157,-3.76774 -2.98844,-2.84475 -4.04281,-4.33974 -3.28746,-4.03622 -1.22436,-1.64373 -3.81453,-5.73615 -2.22052,-3.88726 -1.80159,-3.56018 m -3.03246,61.96295 5.19839,3.95501 5.14314,3.51563 5.03939,3.09851 7.28914,3.93274 9.54124,4.26337 5.12169,1.90956 5.29402,1.73723 v 23.51074 l -0.16479,0.0549 -0.71411,-0.0549 -0.1648,0.0549 -0.71411,-0.0549 -0.16479,0.0549 -0.71412,-0.0549 -0.16479,0.0549 -0.71411,-0.0549 -0.1648,0.0549 -0.71411,-0.0549 -0.16479,0.0549 -0.71411,-0.0549 -0.1648,0.0549 -0.71411,-0.0549 -0.16479,0.0549 -0.71412,-0.0549 -0.16479,0.0549 -0.71411,-0.0549 -0.1648,0.0549 -0.71411,-0.0549 -0.16479,0.0549 -0.71412,-0.0549 -0.16479,0.0549 -0.71411,-0.0549 -0.1648,0.0549 -0.71411,-0.0549 -0.16479,0.0549 -0.71411,-0.0549 -0.1648,0.0549 -0.71411,-0.0549 -0.16479,0.0549 -0.71412,-0.0549 -0.16479,0.0549 -0.71411,-0.0549 -0.1648,0.0549 -0.71411,-0.0549 -0.16479,0.0549 -0.71412,-0.0549 -0.16479,0.0549 -0.71411,-0.0549 -0.1648,0.0549 -0.71411,-0.0549 -0.16479,0.0549 -0.71411,-0.0549 -0.1648,0.0549 -0.71411,-0.0549 -0.16479,0.0549 -0.71412,-0.0549 -0.16479,0.0549 -0.71411,-0.0549 -0.1648,0.0549 -0.71411,-0.0549 -0.16479,0.0549 -0.71412,-0.0549 -0.16479,0.0549 -0.71411,-0.0549 -0.1648,0.0549 -0.71411,-0.0549 -0.16479,0.0549 -0.71411,-0.0549 -0.1648,0.0549 -0.71411,-0.0549 -0.16479,0.0549 -0.71412,-0.0549 -0.16479,0.0549 -0.71411,-0.0549 -0.1648,0.0549 -0.71411,-0.0549 -0.16479,0.0549 -0.71412,-0.0549 -0.16479,0.0549 -0.71411,-0.0549 -0.1648,0.0549 -0.71411,-0.0549 -0.16479,0.0549 -0.71411,-0.0549 -0.1648,0.0549 -0.71411,-0.0549 -0.16479,0.0549 -0.71412,-0.0549 -0.16479,0.0549 -0.71411,-0.0549 -0.1648,0.0549 -0.71411,-0.0549 -0.16479,0.0549 -0.71411,-0.0549 -0.1648,0.0549 -0.71411,-0.0549 -0.1648,0.0549 -0.71411,-0.0549 -0.16479,0.0549 -0.71411,-0.0549 -0.1648,0.0549 -0.71411,-0.0549 -0.16479,0.0549 -0.71412,-0.0549 -0.16479,0.0549 -0.71411,-0.0549 -0.1648,0.0549 -0.71411,-0.0549 -0.16479,0.0549 -0.71411,-0.0549 -0.1648,0.0549 -0.71411,-0.0549 -0.1648,0.0549 -0.71411,-0.0549 -0.16479,0.0549 -0.71411,-0.0549 -0.1648,0.0549 -0.27466,-0.0549 -0.0549,-0.27466 0.0549,-47.62573 2.94748,0.0643 2.3259,1.91325"
           id="path5" /></g><g
         id="g7"
         transform="matrix(0.84902695,0,0,0.84902695,266.77887,-279.27478)"><title
           id="title5">Expression 3</title><path
           fill="#388c46"
           stroke="none"
           paint-order="stroke fill markers"
           d=""
           fill-opacity="0.4"
           id="path6" /><path
           fill="#388c46"
           stroke="none"
           class="dcg-svg-region"
           paint-order="stroke fill markers"
           d="m 176.44004,80.639262 2.81742,-0.521718 6.68004,-0.96581 7.03125,-0.612093 2.0296,-0.100493 5.00165,-0.102854 7.03125,0.203347 3.37346,0.242379 7.17341,0.830826 6.15235,1.060199 0.21973,0.235158 v 22.961427 l -0.43946,0.10986 -47.46094,-0.10986 V 80.908203 l 0.39024,-0.268941 m -12.4752,3.345113 v 19.995115 l -38.67586,-0.002 4.39852,-3.26601 6.57152,-4.341331 3.09117,-1.838909 7.47282,-3.958237 6.85414,-3.073013 6.64835,-2.513002 3.63934,-1.191665 v 0.189042 m -43.78051,-27.960205 0.71411,0.05493 0.16479,-0.05493 v 0 l 0.0893,-0.0206 1.19976,0.05215 -5.86117,3.319282 -0.44818,0.267117 -0.0334,-0.761502 0.0549,-2.801513 0.60425,-0.05493 0.71411,0.05493 0.1648,-0.05493 0.71411,0.05493 0.16479,-0.05493 0.71412,0.05493 0.16479,-0.05493 0.71411,0.05493 0.1648,-0.05493 m -3.2959,59.985346 0.0549,0.0549 0.0549,-0.0549 1.26343,0.0549 1.26343,-0.0549 0.0549,0.0549 0.0549,-0.0549 1.26343,0.0549 1.26343,-0.0549 0.0549,0.0549 0.0549,-0.0549 1.26343,0.0549 1.26342,-0.0549 0.0549,0.0549 0.0549,-0.0549 1.26343,0.0549 1.26342,-0.0549 0.0549,0.0549 0.0549,-0.0549 1.26342,0.0549 1.26343,-0.0549 0.0549,0.0549 0.0549,-0.0549 1.26343,0.0549 1.26343,-0.0549 0.0549,0.0549 0.0549,-0.0549 1.26343,0.0549 1.26343,-0.0549 0.0549,0.0549 0.0549,-0.0549 1.26343,0.0549 1.26343,-0.0549 0.0549,0.0549 0.0549,-0.0549 1.26343,0.0549 1.26343,-0.0549 0.0549,0.0549 0.0549,-0.0549 1.26343,0.0549 1.26343,-0.0549 0.0549,0.0549 0.0549,-0.0549 1.26343,0.0549 1.26342,-0.0549 0.0549,0.0549 0.0549,-0.0549 1.26342,0.0549 1.26343,-0.0549 0.0549,0.0549 0.0549,-0.0549 1.26342,0.0549 1.26343,-0.0549 0.0549,0.0549 0.0549,-0.0549 1.26343,0.0549 1.26343,-0.0549 0.0549,0.0549 0.0549,-0.0549 1.26343,0.0549 1.26343,-0.0549 0.0549,0.0549 0.0549,-0.0549 1.26343,0.0549 1.26343,-0.0549 0.0549,0.0549 0.0549,-0.0549 1.26343,0.0549 1.26343,-0.0549 0.0549,0.0549 0.0549,-0.0549 1.26343,0.0549 h 0.8789 l -0.0366,12.78075 -4.35793,2.38257 -1.75781,1.06408 -7.03125,4.92525 -2.78551,2.28716 -4.56531,4.24574 -3.92617,4.24574 -3.74443,4.70336 -4.53206,6.87121 -2.17692,3.95508 -0.24226,0.43945 h -12.79907 v -47.95532 l 0.0549,0.0549 0.0549,-0.0549 h 0.76905 m -12.90894,9.94263 V 163.9648 H 83.795332 l 1.583588,-4.75779 0.946891,-2.56874 2.410664,-5.85706 1.836538,-3.95824 1.547449,-3.07301 3.968323,-7.03125 2.746712,-4.30425 3.911453,-5.51649 1.23055,-1.60903 0.002,0.004 v 0.65918 m 72.67456,-9.94263 0.0549,0.0549 0.0549,-0.0549 1.26342,0.0549 1.26343,-0.0549 0.0549,0.0549 0.0549,-0.0549 1.26343,0.0549 1.26343,-0.0549 0.0549,0.0549 0.0549,-0.0549 1.26343,0.0549 1.26343,-0.0549 0.0549,0.0549 0.0549,-0.0549 1.26343,0.0549 1.26343,-0.0549 0.0549,0.0549 0.0549,-0.0549 1.26343,0.0549 1.26343,-0.0549 0.0549,0.0549 0.0549,-0.0549 1.26343,0.0549 1.26343,-0.0549 0.0549,0.0549 0.0549,-0.0549 1.26343,0.0549 1.26342,-0.0549 0.0549,0.0549 0.0549,-0.0549 1.26342,0.0549 1.26343,-0.0549 0.0549,0.0549 0.0549,-0.0549 1.26342,0.0549 1.26343,-0.0549 0.0549,0.0549 0.0549,-0.0549 1.26343,0.0549 1.26343,-0.0549 0.0549,0.0549 0.0549,-0.0549 1.26343,0.0549 1.26343,-0.0549 0.0549,0.0549 0.0549,-0.0549 1.26343,0.0549 1.26343,-0.0549 0.0549,0.0549 0.0549,-0.0549 1.26343,0.0549 1.26343,-0.0549 0.0549,0.0549 0.0549,-0.0549 1.26343,0.0549 1.26343,-0.0549 0.0549,0.0549 0.0549,-0.0549 1.26343,0.0549 1.26342,-0.0549 0.0549,0.0549 0.0549,-0.0549 1.26342,0.0549 1.26343,-0.0549 0.0549,0.0549 0.0549,-0.0549 1.26342,0.0549 1.26343,-0.0549 0.0549,0.0549 0.0549,-0.0549 1.26343,0.0549 h 0.87891 0.21973 v 7.69043 l -0.21973,0.0805 -4.39453,-1.23245 -4.27581,-0.94435 -4.7102,-0.76018 -5.07649,-0.49976 -4.18241,-0.16702 -4.60666,0.07 -5.17363,0.39713 -3.94857,0.53275 -4.9403,0.95333 -4.5695,1.17527 -1.80257,0.3947 v -7.69043 l 0.60425,-0.0549 m 15.43579,47.95532 h -3.79285 l 3.16811,-0.8789 2.7343,-0.52717 3.16718,-0.35504 3.59504,-0.0794 3.51835,0.2536 3.09516,0.49918 3.24624,0.81326 0.88164,0.27449 h -19.61317 m -15.76538,12.0575 0.82398,0.0275 h 0.21972 46.58204 v 47.9004 h -0.65918 -47.24122 v -47.9004 l 0.27466,-0.0275 m -12.35962,12.55188 v 23.12868 l -0.71164,-2.47438 -0.60093,-2.85356 -0.30101,-2.12466 -0.19836,-2.49249 -0.0286,-2.71943 0.15125,-2.55401 0.37671,-2.85933 0.51217,-2.49261 0.8004,-2.83533 v 0.27712 m -43.89038,-12.55188 0.82398,0.0275 h 0.21972 2.63672 l 0.0805,0.21973 -0.85903,2.95686 -0.92583,3.80118 -0.81898,4.3346 -0.54494,4.06056 -0.32149,3.83712 -0.13349,3.64912 0.0285,3.48709 0.17084,3.34478 0.46741,4.60903 0.57497,3.71263 0.79916,3.8993 1.11972,4.29659 0.44313,1.47208 -0.0805,0.21973 h -0.65918 -7.05871 l -0.0275,-0.71412 0.0275,-47.18628 4.03747,-0.0275 m -28.124997,0 0.823974,0.0275 h 0.219727 10.876466 l 0.10986,0.43946 v 47.24121 l -0.10986,0.21973 H 80.908203 l -0.268941,-0.39024 -0.521718,-2.81742 -0.96581,-6.68004 -0.612093,-7.03125 -0.100493,-2.0296 -0.102854,-5.0016 0.203347,-7.03125 0.242384,-3.37345 0.512179,-4.83235 0.928254,-6.10299 0.450587,-2.39043 0.235158,-0.21973 11.04126,-0.0275 m -34.82666,-60.01282 0.05493,0.0549 0.05493,-0.0549 1.263428,0.0549 0.384521,-0.0549 v 0 l 0.748618,0.0549 -3.130944,5.4729 -0.474119,0.87343 v -1.67714 -4.66919 l 0.32959,-0.0549 H 57.1228 m 224.78028,-59.98535 0.71411,0.05493 0.16479,-0.05493 0.71411,0.05493 0.1648,-0.05493 0.27466,0.05493 0.0549,0.274658 -0.0334,3.288357 -6.30935,-3.586399 0.57492,0.02338 1.0437,-0.05493 0.71411,0.05493 0.16479,-0.05493 0.71411,0.05493 0.1648,-0.05493 0.71411,0.05493 0.1648,-0.05493 m -45.7237,27.815984 4.61357,1.538766 5.5299,2.12108 6.85414,3.073013 3.07301,1.547449 7.79005,4.434251 3.54545,2.280784 6.27311,4.484817 0.85241,0.65719 -0.004,0.002 H 236.03516 V 83.795333 l 0.14422,0.04482 m 105.70905,32.169367 0.0549,0.0549 0.0549,-0.0549 1.26343,0.0549 h 0.71411 v 6.34633 l -3.01953,-5.35926 -0.58553,-0.98707 1.51766,-0.0549 m -25.87281,47.95532 h -19.99511 l 0.002,-38.67586 3.26602,4.39852 3.92869,5.90548 2.25154,3.75721 2.41079,4.39981 1.54745,3.07301 3.07301,6.85416 2.24972,5.89314 1.45495,4.39453 h -0.18905 m 0.93384,12.0575 0.82398,0.0275 h 0.21972 1.09864 l 0.26894,0.39024 0.52172,2.81742 0.96581,6.68004 0.61209,7.03125 0.10049,2.0296 0.10286,5.00165 -0.20335,7.03125 -0.24239,3.37345 -0.51217,4.83235 -0.92826,6.10299 -0.45058,2.39043 -0.23516,0.21973 h -22.96143 l -0.10986,-0.43946 v -47.24121 l 0.10986,-0.21973 20.81909,-0.0275 m -80.52978,-60.01282 0.0549,0.0549 0.0549,-0.0549 1.26343,0.0549 1.26343,-0.0549 0.0549,0.0549 0.0549,-0.0549 1.26343,0.0549 1.26343,-0.0549 0.0549,0.0549 0.0549,-0.0549 1.26343,0.0549 1.26342,-0.0549 0.0549,0.0549 0.0549,-0.0549 1.26342,0.0549 1.26343,-0.0549 0.0549,0.0549 0.0549,-0.0549 1.26342,0.0549 1.26343,-0.0549 0.0549,0.0549 0.0549,-0.0549 1.26343,0.0549 1.26343,-0.0549 0.0549,0.0549 0.0549,-0.0549 1.26343,0.0549 1.26343,-0.0549 0.0549,0.0549 0.0549,-0.0549 1.26343,0.0549 1.26343,-0.0549 0.0549,0.0549 0.0549,-0.0549 1.26343,0.0549 1.26343,-0.0549 0.0549,0.0549 0.0549,-0.0549 1.26343,0.0549 1.26343,-0.0549 0.0549,0.0549 0.0549,-0.0549 1.26343,0.0549 1.26342,-0.0549 0.0549,0.0549 0.0549,-0.0549 1.26342,0.0549 1.26343,-0.0549 0.0549,0.0549 0.0549,-0.0549 1.26342,0.0549 1.26343,-0.0549 0.0549,0.0549 0.0549,-0.0549 1.26343,0.0549 1.26343,-0.0549 0.0549,0.0549 0.0549,-0.0549 1.26343,0.0549 1.26343,-0.0549 0.0549,0.0549 0.0549,-0.0549 1.26343,0.0549 1.26343,-0.0549 0.0549,0.0549 0.0549,-0.0549 1.26343,0.0549 1.26343,-0.0549 0.0549,0.0549 0.0549,-0.0549 1.26343,0.0549 1.26343,-0.0549 0.0549,0.0549 0.0549,-0.0549 v 47.95532 l -12.83568,-0.0366 -2.07871,-3.83652 -1.36794,-2.27922 -4.70681,-6.75134 -2.5056,-3.06542 -4.24574,-4.56531 -4.24574,-3.92617 -4.70325,-3.74438 -7.39273,-4.83597 -3.87312,-2.11532 v -12.74414 l 0.38452,-0.0549 m 40.1001,60.01282 0.82397,0.0275 h 0.21973 6.39953 l 0.0275,0.71412 -0.0275,47.18628 h -7.71789 l -0.0805,-0.21973 0.85903,-2.95686 0.92583,-3.80118 0.81898,-4.3346 0.54494,-4.06056 0.32149,-3.83712 0.13349,-3.64912 -0.0285,-3.48709 -0.17084,-3.34478 -0.46741,-4.60903 -0.57497,-3.71263 -0.79916,-3.8993 -1.11972,-4.29659 -0.44313,-1.47208 0.0805,-0.21973 0.27466,-0.0275 m -40.41717,12.48442 0.75177,2.70418 0.53067,2.63672 0.33939,2.63671 0.15517,2.72336 -0.0325,2.55008 -0.2367,2.81929 -0.48749,2.99803 -0.6483,2.67639 -0.43945,1.45138 v -23.4058 l 0.0675,0.20966 m -28.19245,47.5284 h 3.79285 l -3.16811,0.8789 -2.7343,0.52717 -3.16718,0.35504 -3.59504,0.0794 -3.51835,-0.2536 -3.09516,-0.49918 -3.24624,-0.81326 -0.88164,-0.27449 h 19.61317 m 88.11035,0.21972 v -0.21972 h 20.18416 l -1.58359,4.75779 -0.94689,2.56874 -2.41067,5.85706 -1.83653,3.95824 -1.54745,3.07301 -3.96833,7.03125 -2.74671,4.30425 -3.91145,5.51649 -1.23055,1.60903 -0.002,-0.004 v -38.45215 m -26.24469,2.41699 1.41559,-2.63671 h 12.79907 v 47.95532 l -0.0549,-0.0549 -0.0549,0.0549 -1.26343,-0.0549 -1.26343,0.0549 -0.0549,-0.0549 -0.0549,0.0549 -1.26343,-0.0549 -1.26343,0.0549 -0.0549,-0.0549 -0.0549,0.0549 -1.26343,-0.0549 -1.26343,0.0549 -0.0549,-0.0549 -0.0549,0.0549 -1.26343,-0.0549 -1.26343,0.0549 -0.0549,-0.0549 -0.0549,0.0549 -1.26343,-0.0549 -1.26343,0.0549 -0.0549,-0.0549 -0.0549,0.0549 -1.26343,-0.0549 -1.26342,0.0549 -0.0549,-0.0549 -0.0549,0.0549 -1.26343,-0.0549 -1.26342,0.0549 -0.0549,-0.0549 -0.0549,0.0549 -1.26342,-0.0549 -1.26343,0.0549 -0.0549,-0.0549 -0.0549,0.0549 -1.26343,-0.0549 -1.26343,0.0549 -0.0549,-0.0549 -0.0549,0.0549 -1.26343,-0.0549 -1.26343,0.0549 -0.0549,-0.0549 -0.0549,0.0549 -1.26343,-0.0549 -1.26343,0.0549 -0.0549,-0.0549 -0.0549,0.0549 -1.26343,-0.0549 -1.26343,0.0549 -0.0549,-0.0549 -0.0549,0.0549 -1.26343,-0.0549 -1.26343,0.0549 -0.0549,-0.0549 -0.0549,0.0549 -1.26343,-0.0549 -1.26342,0.0549 -0.0549,-0.0549 -0.0549,0.0549 -1.26343,-0.0549 -1.26342,0.0549 -0.0549,-0.0549 -0.0549,0.0549 -1.26342,-0.0549 -1.26343,0.0549 -0.0549,-0.0549 -0.0549,0.0549 -1.26343,-0.0549 -1.26343,0.0549 -0.0549,-0.0549 -0.0549,0.0549 -1.26343,-0.0549 -1.26343,0.0549 -0.0549,-0.0549 -0.0549,0.0549 -0.38452,-0.0549 v 0 l 0.0366,-12.78075 4.35793,-2.38257 1.75781,-1.06408 7.03125,-4.92525 2.78551,-2.28716 4.56531,-4.24574 3.92617,-4.24574 3.74443,-4.70336 4.53206,-6.87121 1.00359,-1.75782 m -1.88031,57.34864 6.81551,0.002 -4.39852,3.26601 -6.57152,4.34133 -3.09117,1.83891 -7.47282,3.95824 -6.85414,3.07301 -6.64835,2.513 -3.63934,1.19167 v -20.18416 h 31.86035 M 223.9502,276.24512 v 7.69043 h -47.9004 v -7.69043 l 0.21973,-0.0805 4.39453,1.23245 4.27581,0.94435 4.7102,0.76018 5.07649,0.49976 4.18241,0.16702 4.60665,-0.07 5.17364,-0.39713 3.94857,-0.53275 4.94029,-0.95333 4.56951,-1.17527 1.80257,-0.3947 m -12.30469,19.77539 12.30469,0.10986 v 22.96143 l -0.39024,0.26894 -2.81742,0.52172 -6.68004,0.96581 -7.03125,0.61209 -2.0296,0.10049 -5.00165,0.10286 -7.03125,-0.20335 -3.37346,-0.24238 -7.17342,-0.83083 -6.15234,-1.06019 -0.21973,-0.23516 v -22.96143 l 0.43946,-0.10986 h 35.15625 m 132.16594,-18.12703 0.16438,-0.30426 v 1.67714 4.66919 l -0.32959,0.0549 -1.26343,-0.0549 -1.26343,0.0549 -0.74861,-0.0549 3.13094,-5.4729 0.30974,-0.56917 m -63.65262,64.6677 3.79826,-2.2033 0.0334,0.7615 -0.0549,2.80152 -0.60425,0.0549 -0.71411,-0.0549 -0.1648,0.0549 -0.71411,-0.0549 -0.16479,0.0549 -0.71412,-0.0549 -0.16479,0.0549 -0.71411,-0.0549 -0.1648,0.0549 -0.71411,-0.0549 -0.16479,0.0549 v 0 l -0.0893,0.0206 -1.19976,-0.0521 2.51109,-1.3831 M 83.795332,236.03516 h 20.184158 l -0.002,38.67586 -3.26602,-4.39852 -3.928695,-5.90548 L 94.53125,260.64981 92.120462,256.25 90.573013,253.17699 87.5,246.32283 l -2.249718,-5.89314 -1.45495,-4.39453 m -27.481274,42.0896 2.793349,4.93188 0.521826,0.87891 H 56.02417 v -6.34633 l 0.289888,0.53554 m 67.221102,-42.0896 5.31004,0.0366 2.07871,3.83652 1.36794,2.27922 4.70681,6.75134 2.5056,3.06542 4.24574,4.56531 4.24574,3.92617 4.70325,3.74438 7.39273,4.83597 3.87312,2.11532 v 12.74414 l -1.26342,0.0549 -0.0549,-0.0549 -0.0549,0.0549 -1.26343,-0.0549 -1.26342,0.0549 -0.0549,-0.0549 -0.0549,0.0549 -1.26342,-0.0549 -1.26343,0.0549 -0.0549,-0.0549 -0.0549,0.0549 -1.26343,-0.0549 -1.26343,0.0549 -0.0549,-0.0549 -0.0549,0.0549 -1.26343,-0.0549 -1.26343,0.0549 -0.0549,-0.0549 -0.0549,0.0549 -1.26343,-0.0549 -1.26343,0.0549 -0.0549,-0.0549 -0.0549,0.0549 -1.26343,-0.0549 -1.26343,0.0549 -0.0549,-0.0549 -0.0549,0.0549 -1.26343,-0.0549 -1.26343,0.0549 -0.0549,-0.0549 -0.0549,0.0549 -1.26343,-0.0549 -1.26342,0.0549 -0.0549,-0.0549 -0.0549,0.0549 -1.26343,-0.0549 -1.26342,0.0549 -0.0549,-0.0549 -0.0549,0.0549 -1.26342,-0.0549 -1.26343,0.0549 -0.0549,-0.0549 -0.0549,0.0549 -1.26343,-0.0549 -1.26343,0.0549 -0.0549,-0.0549 -0.0549,0.0549 -1.26343,-0.0549 -1.26343,0.0549 -0.0549,-0.0549 -0.0549,0.0549 -1.26343,-0.0549 -1.26343,0.0549 -0.0549,-0.0549 -0.0549,0.0549 -1.26343,-0.0549 -1.26343,0.0549 -0.0549,-0.0549 -0.0549,0.0549 -1.26343,-0.0549 -1.26343,0.0549 -0.0549,-0.0549 -0.0549,0.0549 -1.26343,-0.0549 -1.26342,0.0549 -0.0549,-0.0549 -0.0549,0.0549 -1.26342,-0.0549 -1.26343,0.0549 -0.0549,-0.0549 -0.0549,0.0549 -1.26342,-0.0549 -0.49439,0.0549 v -47.95532 h 7.52564 m 31.86035,59.98535 h 8.56933 v 20.18416 l -4.75779,-1.58359 -5.5299,-2.12108 -6.85414,-3.07301 -3.07301,-1.54745 -7.79005,-4.43425 -3.54545,-2.28079 -6.27311,-4.48481 -0.85241,-0.65719 0.004,-0.002 h 30.10254 m -38.87289,44.6232 5.82964,3.30057 -0.57492,-0.0234 -1.0437,0.0549 -0.71411,-0.0549 -0.16479,0.0549 -0.71411,-0.0549 -0.1648,0.0549 -0.71411,-0.0549 -0.1648,0.0549 -0.71411,-0.0549 -0.16479,0.0549 -0.71411,-0.0549 -0.1648,0.0549 -0.27466,-0.0549 -0.0549,-0.27466 0.0334,-3.28836 0.47971,0.28583"
           fill-opacity="0.4"
           id="path7" /></g></g><g
       id="labels-a6f01dc5" /></g></svg>
